<mxfile host="app.diagrams.net" modified="2023-07-28T19:04:59.695Z" agent="Mozilla/5.0 (Windows NT 10.0; Win64; x64) AppleWebKit/537.36 (KHTML, like Gecko) Chrome/114.0.0.0 Safari/537.36" etag="ooc0F2AdFHt6ZqESq1Fy" version="21.6.5" type="device">
  <diagram name="Page-1" id="929967ad-93f9-6ef4-fab6-5d389245f69c">
    <mxGraphModel dx="1715" dy="920" grid="1" gridSize="10" guides="1" tooltips="1" connect="1" arrows="1" fold="1" page="1" pageScale="1.5" pageWidth="827" pageHeight="583" background="#b8bda3" math="0" shadow="0">
      <root>
        <mxCell id="0" style=";html=1;" />
        <mxCell id="1" style=";html=1;" parent="0" />
        <mxCell id="1672d66443f91eb5-23" value="UML diagramma - AddressbookBot" style="text;strokeColor=none;fillColor=none;html=1;fontSize=24;fontStyle=1;verticalAlign=middle;align=center;" parent="1" vertex="1">
          <mxGeometry x="300" y="59" width="420" height="40" as="geometry" />
        </mxCell>
        <mxCell id="MD10GDsTbNlNncCkdXS1-1" value="&lt;div style=&quot;font-family: Consolas, &amp;quot;Courier New&amp;quot;, monospace; font-size: 14px; line-height: 19px;&quot;&gt;Operations&lt;/div&gt;" style="swimlane;fontStyle=0;childLayout=stackLayout;horizontal=1;startSize=26;fillColor=none;horizontalStack=0;resizeParent=1;resizeParentMax=0;resizeLast=0;collapsible=1;marginBottom=0;whiteSpace=wrap;html=1;" parent="1" vertex="1">
          <mxGeometry x="120" y="149" width="140" height="182" as="geometry">
            <mxRectangle x="710" y="190" width="100" height="30" as="alternateBounds" />
          </mxGeometry>
        </mxCell>
        <mxCell id="MD10GDsTbNlNncCkdXS1-63" value="+ add()" style="text;strokeColor=default;fillColor=none;align=left;verticalAlign=top;spacingLeft=4;spacingRight=4;overflow=hidden;rotatable=0;points=[[0,0.5],[1,0.5]];portConstraint=eastwest;whiteSpace=wrap;html=1;" parent="MD10GDsTbNlNncCkdXS1-1" vertex="1">
          <mxGeometry y="26" width="140" height="26" as="geometry" />
        </mxCell>
        <mxCell id="MD10GDsTbNlNncCkdXS1-66" value="+&amp;nbsp;search()" style="text;strokeColor=default;fillColor=none;align=left;verticalAlign=top;spacingLeft=4;spacingRight=4;overflow=hidden;rotatable=0;points=[[0,0.5],[1,0.5]];portConstraint=eastwest;whiteSpace=wrap;html=1;" parent="MD10GDsTbNlNncCkdXS1-1" vertex="1">
          <mxGeometry y="52" width="140" height="26" as="geometry" />
        </mxCell>
        <mxCell id="MD10GDsTbNlNncCkdXS1-67" value="+&amp;nbsp;edit()" style="text;strokeColor=default;fillColor=none;align=left;verticalAlign=top;spacingLeft=4;spacingRight=4;overflow=hidden;rotatable=0;points=[[0,0.5],[1,0.5]];portConstraint=eastwest;whiteSpace=wrap;html=1;" parent="MD10GDsTbNlNncCkdXS1-1" vertex="1">
          <mxGeometry y="78" width="140" height="26" as="geometry" />
        </mxCell>
        <mxCell id="MD10GDsTbNlNncCkdXS1-68" value="+&amp;nbsp;delete()" style="text;strokeColor=default;fillColor=none;align=left;verticalAlign=top;spacingLeft=4;spacingRight=4;overflow=hidden;rotatable=0;points=[[0,0.5],[1,0.5]];portConstraint=eastwest;whiteSpace=wrap;html=1;" parent="MD10GDsTbNlNncCkdXS1-1" vertex="1">
          <mxGeometry y="104" width="140" height="26" as="geometry" />
        </mxCell>
        <mxCell id="MD10GDsTbNlNncCkdXS1-69" value="- get_current_week()" style="text;strokeColor=default;fillColor=none;align=left;verticalAlign=top;spacingLeft=4;spacingRight=4;overflow=hidden;rotatable=0;points=[[0,0.5],[1,0.5]];portConstraint=eastwest;whiteSpace=wrap;html=1;" parent="MD10GDsTbNlNncCkdXS1-1" vertex="1">
          <mxGeometry y="130" width="140" height="26" as="geometry" />
        </mxCell>
        <mxCell id="MD10GDsTbNlNncCkdXS1-70" value="+&amp;nbsp;congratulate()" style="text;strokeColor=default;fillColor=none;align=left;verticalAlign=top;spacingLeft=4;spacingRight=4;overflow=hidden;rotatable=0;points=[[0,0.5],[1,0.5]];portConstraint=eastwest;whiteSpace=wrap;html=1;" parent="MD10GDsTbNlNncCkdXS1-1" vertex="1">
          <mxGeometry y="156" width="140" height="26" as="geometry" />
        </mxCell>
        <mxCell id="MD10GDsTbNlNncCkdXS1-53" value="&lt;div style=&quot;line-height: 19px;&quot;&gt;&lt;div style=&quot;line-height: 19px;&quot;&gt;&lt;span style=&quot;font-size: 14px; font-family: Consolas, &amp;quot;Courier New&amp;quot;, monospace; background-color: initial;&quot;&gt;UserList&lt;/span&gt;&lt;br&gt;&lt;/div&gt;&lt;/div&gt;" style="swimlane;fontStyle=2;childLayout=stackLayout;horizontal=1;startSize=26;fillColor=none;horizontalStack=0;resizeParent=1;resizeParentMax=0;resizeLast=0;collapsible=1;marginBottom=0;whiteSpace=wrap;html=1;" parent="1" vertex="1" collapsed="1">
          <mxGeometry x="130" y="59" width="120" height="30" as="geometry">
            <mxRectangle x="720" y="100" width="140" height="52" as="alternateBounds" />
          </mxGeometry>
        </mxCell>
        <mxCell id="MD10GDsTbNlNncCkdXS1-56" value="" style="endArrow=classic;html=1;rounded=0;entryX=0.5;entryY=1;entryDx=0;entryDy=0;" parent="1" target="MD10GDsTbNlNncCkdXS1-53" edge="1">
          <mxGeometry width="50" height="50" relative="1" as="geometry">
            <mxPoint x="190" y="149" as="sourcePoint" />
            <mxPoint x="240" y="149" as="targetPoint" />
          </mxGeometry>
        </mxCell>
        <mxCell id="MD10GDsTbNlNncCkdXS1-74" value="&lt;div style=&quot;font-family: Consolas, &amp;quot;Courier New&amp;quot;, monospace; font-size: 14px; line-height: 19px;&quot;&gt;Record&lt;br&gt;&lt;/div&gt;" style="swimlane;fontStyle=0;childLayout=stackLayout;horizontal=1;startSize=26;fillColor=none;horizontalStack=0;resizeParent=1;resizeParentMax=0;resizeLast=0;collapsible=1;marginBottom=0;whiteSpace=wrap;html=1;" parent="1" vertex="1">
          <mxGeometry x="320" y="414" width="121" height="208" as="geometry">
            <mxRectangle x="710" y="190" width="100" height="30" as="alternateBounds" />
          </mxGeometry>
        </mxCell>
        <mxCell id="MD10GDsTbNlNncCkdXS1-75" value="+&amp;nbsp;name" style="text;strokeColor=default;fillColor=none;align=left;verticalAlign=top;spacingLeft=4;spacingRight=4;overflow=hidden;rotatable=0;points=[[0,0.5],[1,0.5]];portConstraint=eastwest;whiteSpace=wrap;html=1;" parent="MD10GDsTbNlNncCkdXS1-74" vertex="1">
          <mxGeometry y="26" width="121" height="26" as="geometry" />
        </mxCell>
        <mxCell id="MD10GDsTbNlNncCkdXS1-76" value="+&amp;nbsp;phones" style="text;strokeColor=default;fillColor=none;align=left;verticalAlign=top;spacingLeft=4;spacingRight=4;overflow=hidden;rotatable=0;points=[[0,0.5],[1,0.5]];portConstraint=eastwest;whiteSpace=wrap;html=1;" parent="MD10GDsTbNlNncCkdXS1-74" vertex="1">
          <mxGeometry y="52" width="121" height="26" as="geometry" />
        </mxCell>
        <mxCell id="RFE8gkDULMLMgZSxzmBv-2" value="+&amp;nbsp;birthday" style="text;strokeColor=default;fillColor=none;align=left;verticalAlign=top;spacingLeft=4;spacingRight=4;overflow=hidden;rotatable=0;points=[[0,0.5],[1,0.5]];portConstraint=eastwest;whiteSpace=wrap;html=1;" parent="MD10GDsTbNlNncCkdXS1-74" vertex="1">
          <mxGeometry y="78" width="121" height="26" as="geometry" />
        </mxCell>
        <mxCell id="RFE8gkDULMLMgZSxzmBv-3" value="+&amp;nbsp;email" style="text;strokeColor=default;fillColor=none;align=left;verticalAlign=top;spacingLeft=4;spacingRight=4;overflow=hidden;rotatable=0;points=[[0,0.5],[1,0.5]];portConstraint=eastwest;whiteSpace=wrap;html=1;" parent="MD10GDsTbNlNncCkdXS1-74" vertex="1">
          <mxGeometry y="104" width="121" height="26" as="geometry" />
        </mxCell>
        <mxCell id="RFE8gkDULMLMgZSxzmBv-4" value="+&amp;nbsp;status" style="text;strokeColor=default;fillColor=none;align=left;verticalAlign=top;spacingLeft=4;spacingRight=4;overflow=hidden;rotatable=0;points=[[0,0.5],[1,0.5]];portConstraint=eastwest;whiteSpace=wrap;html=1;" parent="MD10GDsTbNlNncCkdXS1-74" vertex="1">
          <mxGeometry y="130" width="121" height="26" as="geometry" />
        </mxCell>
        <mxCell id="RFE8gkDULMLMgZSxzmBv-5" value="+&amp;nbsp;note" style="text;strokeColor=default;fillColor=none;align=left;verticalAlign=top;spacingLeft=4;spacingRight=4;overflow=hidden;rotatable=0;points=[[0,0.5],[1,0.5]];portConstraint=eastwest;whiteSpace=wrap;html=1;" parent="MD10GDsTbNlNncCkdXS1-74" vertex="1">
          <mxGeometry y="156" width="121" height="26" as="geometry" />
        </mxCell>
        <mxCell id="MD10GDsTbNlNncCkdXS1-81" value="- str&lt;span style=&quot;background-color: initial;&quot;&gt;()&lt;/span&gt;" style="text;strokeColor=default;fillColor=none;align=left;verticalAlign=top;spacingLeft=4;spacingRight=4;overflow=hidden;rotatable=0;points=[[0,0.5],[1,0.5]];portConstraint=eastwest;whiteSpace=wrap;html=1;" parent="MD10GDsTbNlNncCkdXS1-74" vertex="1">
          <mxGeometry y="182" width="121" height="26" as="geometry" />
        </mxCell>
        <mxCell id="RFE8gkDULMLMgZSxzmBv-6" value="&lt;div style=&quot;line-height: 19px;&quot;&gt;&lt;div style=&quot;line-height: 19px;&quot;&gt;&lt;span style=&quot;font-size: 14px; font-family: Consolas, &amp;quot;Courier New&amp;quot;, monospace; background-color: initial;&quot;&gt;ABC&lt;/span&gt;&lt;br&gt;&lt;/div&gt;&lt;/div&gt;" style="swimlane;fontStyle=2;childLayout=stackLayout;horizontal=1;startSize=26;fillColor=none;horizontalStack=0;resizeParent=1;resizeParentMax=0;resizeLast=0;collapsible=1;marginBottom=0;whiteSpace=wrap;html=1;" parent="1" vertex="1" collapsed="1">
          <mxGeometry x="770" y="59" width="120" height="30" as="geometry">
            <mxRectangle x="720" y="100" width="140" height="52" as="alternateBounds" />
          </mxGeometry>
        </mxCell>
        <mxCell id="RFE8gkDULMLMgZSxzmBv-7" value="&lt;div style=&quot;font-family: Consolas, &amp;quot;Courier New&amp;quot;, monospace; font-size: 14px; line-height: 19px;&quot;&gt;&lt;i&gt;Field&lt;/i&gt;&lt;br&gt;&lt;/div&gt;" style="swimlane;fontStyle=0;childLayout=stackLayout;horizontal=1;startSize=26;fillColor=none;horizontalStack=0;resizeParent=1;resizeParentMax=0;resizeLast=0;collapsible=1;marginBottom=0;whiteSpace=wrap;html=1;" parent="1" vertex="1">
          <mxGeometry x="760" y="110" width="140" height="78" as="geometry">
            <mxRectangle x="710" y="190" width="100" height="30" as="alternateBounds" />
          </mxGeometry>
        </mxCell>
        <mxCell id="RFE8gkDULMLMgZSxzmBv-23" value="" style="endArrow=classic;html=1;rounded=0;entryX=0.5;entryY=1;entryDx=0;entryDy=0;" parent="RFE8gkDULMLMgZSxzmBv-7" target="RFE8gkDULMLMgZSxzmBv-6" edge="1">
          <mxGeometry width="50" height="50" relative="1" as="geometry">
            <mxPoint x="70" as="sourcePoint" />
            <mxPoint x="70" y="-30" as="targetPoint" />
          </mxGeometry>
        </mxCell>
        <mxCell id="RFE8gkDULMLMgZSxzmBv-14" value="- str()" style="text;strokeColor=default;fillColor=none;align=left;verticalAlign=top;spacingLeft=4;spacingRight=4;overflow=hidden;rotatable=0;points=[[0,0.5],[1,0.5]];portConstraint=eastwest;whiteSpace=wrap;html=1;" parent="RFE8gkDULMLMgZSxzmBv-7" vertex="1">
          <mxGeometry y="26" width="140" height="26" as="geometry" />
        </mxCell>
        <mxCell id="q396DMPLbD6kzOHKhpBb-25" value="- getitem&lt;span style=&quot;background-color: initial;&quot;&gt;()&lt;/span&gt;" style="text;strokeColor=default;fillColor=none;align=left;verticalAlign=top;spacingLeft=4;spacingRight=4;overflow=hidden;rotatable=0;points=[[0,0.5],[1,0.5]];portConstraint=eastwest;whiteSpace=wrap;html=1;" vertex="1" parent="RFE8gkDULMLMgZSxzmBv-7">
          <mxGeometry y="52" width="140" height="26" as="geometry" />
        </mxCell>
        <mxCell id="RFE8gkDULMLMgZSxzmBv-15" value="&lt;div style=&quot;font-family: Consolas, &amp;quot;Courier New&amp;quot;, monospace; font-size: 14px; line-height: 19px;&quot;&gt;Name&lt;br&gt;&lt;/div&gt;" style="swimlane;fontStyle=0;childLayout=stackLayout;horizontal=1;startSize=26;fillColor=none;horizontalStack=0;resizeParent=1;resizeParentMax=0;resizeLast=0;collapsible=1;marginBottom=0;whiteSpace=wrap;html=1;" parent="1" vertex="1">
          <mxGeometry x="480" y="269" width="100" height="130" as="geometry">
            <mxRectangle x="710" y="190" width="100" height="30" as="alternateBounds" />
          </mxGeometry>
        </mxCell>
        <mxCell id="RFE8gkDULMLMgZSxzmBv-16" value="+&amp;nbsp;value" style="text;strokeColor=default;fillColor=none;align=left;verticalAlign=top;spacingLeft=4;spacingRight=4;overflow=hidden;rotatable=0;points=[[0,0.5],[1,0.5]];portConstraint=eastwest;whiteSpace=wrap;html=1;" parent="RFE8gkDULMLMgZSxzmBv-15" vertex="1">
          <mxGeometry y="26" width="100" height="26" as="geometry" />
        </mxCell>
        <mxCell id="q396DMPLbD6kzOHKhpBb-3" value="- init()" style="text;strokeColor=default;fillColor=none;align=left;verticalAlign=top;spacingLeft=4;spacingRight=4;overflow=hidden;rotatable=0;points=[[0,0.5],[1,0.5]];portConstraint=eastwest;whiteSpace=wrap;html=1;" vertex="1" parent="RFE8gkDULMLMgZSxzmBv-15">
          <mxGeometry y="52" width="100" height="26" as="geometry" />
        </mxCell>
        <mxCell id="q396DMPLbD6kzOHKhpBb-1" value="- str()" style="text;strokeColor=default;fillColor=none;align=left;verticalAlign=top;spacingLeft=4;spacingRight=4;overflow=hidden;rotatable=0;points=[[0,0.5],[1,0.5]];portConstraint=eastwest;whiteSpace=wrap;html=1;" vertex="1" parent="RFE8gkDULMLMgZSxzmBv-15">
          <mxGeometry y="78" width="100" height="26" as="geometry" />
        </mxCell>
        <mxCell id="RFE8gkDULMLMgZSxzmBv-17" value="- getitem&lt;span style=&quot;background-color: initial;&quot;&gt;()&lt;/span&gt;" style="text;strokeColor=default;fillColor=none;align=left;verticalAlign=top;spacingLeft=4;spacingRight=4;overflow=hidden;rotatable=0;points=[[0,0.5],[1,0.5]];portConstraint=eastwest;whiteSpace=wrap;html=1;" parent="RFE8gkDULMLMgZSxzmBv-15" vertex="1">
          <mxGeometry y="104" width="100" height="26" as="geometry" />
        </mxCell>
        <mxCell id="RFE8gkDULMLMgZSxzmBv-19" value="&lt;div style=&quot;font-family: Consolas, &amp;quot;Courier New&amp;quot;, monospace; font-size: 14px; line-height: 19px;&quot;&gt;Phone&lt;br&gt;&lt;/div&gt;" style="swimlane;fontStyle=0;childLayout=stackLayout;horizontal=1;startSize=26;fillColor=none;horizontalStack=0;resizeParent=1;resizeParentMax=0;resizeLast=0;collapsible=1;marginBottom=0;whiteSpace=wrap;html=1;" parent="1" vertex="1">
          <mxGeometry x="600" y="269" width="100" height="130" as="geometry">
            <mxRectangle x="710" y="190" width="100" height="30" as="alternateBounds" />
          </mxGeometry>
        </mxCell>
        <mxCell id="RFE8gkDULMLMgZSxzmBv-20" value="+&amp;nbsp;value" style="text;strokeColor=default;fillColor=none;align=left;verticalAlign=top;spacingLeft=4;spacingRight=4;overflow=hidden;rotatable=0;points=[[0,0.5],[1,0.5]];portConstraint=eastwest;whiteSpace=wrap;html=1;" parent="RFE8gkDULMLMgZSxzmBv-19" vertex="1">
          <mxGeometry y="26" width="100" height="26" as="geometry" />
        </mxCell>
        <mxCell id="q396DMPLbD6kzOHKhpBb-4" value="- init()" style="text;strokeColor=default;fillColor=none;align=left;verticalAlign=top;spacingLeft=4;spacingRight=4;overflow=hidden;rotatable=0;points=[[0,0.5],[1,0.5]];portConstraint=eastwest;whiteSpace=wrap;html=1;" vertex="1" parent="RFE8gkDULMLMgZSxzmBv-19">
          <mxGeometry y="52" width="100" height="26" as="geometry" />
        </mxCell>
        <mxCell id="q396DMPLbD6kzOHKhpBb-2" value="- str()" style="text;strokeColor=default;fillColor=none;align=left;verticalAlign=top;spacingLeft=4;spacingRight=4;overflow=hidden;rotatable=0;points=[[0,0.5],[1,0.5]];portConstraint=eastwest;whiteSpace=wrap;html=1;" vertex="1" parent="RFE8gkDULMLMgZSxzmBv-19">
          <mxGeometry y="78" width="100" height="26" as="geometry" />
        </mxCell>
        <mxCell id="RFE8gkDULMLMgZSxzmBv-21" value="- getitem&lt;span style=&quot;background-color: initial;&quot;&gt;()&lt;/span&gt;" style="text;strokeColor=default;fillColor=none;align=left;verticalAlign=top;spacingLeft=4;spacingRight=4;overflow=hidden;rotatable=0;points=[[0,0.5],[1,0.5]];portConstraint=eastwest;whiteSpace=wrap;html=1;" parent="RFE8gkDULMLMgZSxzmBv-19" vertex="1">
          <mxGeometry y="104" width="100" height="26" as="geometry" />
        </mxCell>
        <mxCell id="RFE8gkDULMLMgZSxzmBv-56" value="1" style="endArrow=open;endSize=12;startArrow=diamondThin;startSize=14;startFill=0;edgeStyle=orthogonalEdgeStyle;align=left;verticalAlign=bottom;rounded=0;strokeColor=default;labelBorderColor=none;labelBackgroundColor=none;fontColor=none;noLabel=1;entryX=0.474;entryY=1.058;entryDx=0;entryDy=0;entryPerimeter=0;" parent="1" target="RFE8gkDULMLMgZSxzmBv-21" edge="1">
          <mxGeometry x="-0.875" y="20" relative="1" as="geometry">
            <mxPoint x="441" y="479.06999999999994" as="sourcePoint" />
            <mxPoint x="529" y="479.06999999999994" as="targetPoint" />
            <mxPoint as="offset" />
            <Array as="points">
              <mxPoint x="647" y="479" />
            </Array>
          </mxGeometry>
        </mxCell>
        <mxCell id="RFE8gkDULMLMgZSxzmBv-63" value="1" style="endArrow=open;endSize=12;startArrow=diamondThin;startSize=14;startFill=1;edgeStyle=orthogonalEdgeStyle;align=left;verticalAlign=bottom;rounded=0;strokeColor=default;labelBorderColor=none;labelBackgroundColor=none;fontColor=none;noLabel=1;exitX=1;exitY=0.5;exitDx=0;exitDy=0;entryX=0.494;entryY=1.037;entryDx=0;entryDy=0;entryPerimeter=0;" parent="1" source="MD10GDsTbNlNncCkdXS1-75" target="RFE8gkDULMLMgZSxzmBv-17" edge="1">
          <mxGeometry x="-0.875" y="20" relative="1" as="geometry">
            <mxPoint x="441" y="449" as="sourcePoint" />
            <mxPoint x="530" y="453" as="targetPoint" />
            <mxPoint as="offset" />
          </mxGeometry>
        </mxCell>
        <mxCell id="q396DMPLbD6kzOHKhpBb-5" value="&lt;div style=&quot;font-family: Consolas, &amp;quot;Courier New&amp;quot;, monospace; font-size: 14px; line-height: 19px;&quot;&gt;Birthday&lt;br&gt;&lt;/div&gt;" style="swimlane;fontStyle=0;childLayout=stackLayout;horizontal=1;startSize=26;fillColor=none;horizontalStack=0;resizeParent=1;resizeParentMax=0;resizeLast=0;collapsible=1;marginBottom=0;whiteSpace=wrap;html=1;" vertex="1" parent="1">
          <mxGeometry x="721" y="269" width="100" height="130" as="geometry">
            <mxRectangle x="710" y="190" width="100" height="30" as="alternateBounds" />
          </mxGeometry>
        </mxCell>
        <mxCell id="q396DMPLbD6kzOHKhpBb-6" value="+&amp;nbsp;value" style="text;strokeColor=default;fillColor=none;align=left;verticalAlign=top;spacingLeft=4;spacingRight=4;overflow=hidden;rotatable=0;points=[[0,0.5],[1,0.5]];portConstraint=eastwest;whiteSpace=wrap;html=1;" vertex="1" parent="q396DMPLbD6kzOHKhpBb-5">
          <mxGeometry y="26" width="100" height="26" as="geometry" />
        </mxCell>
        <mxCell id="q396DMPLbD6kzOHKhpBb-7" value="- init()" style="text;strokeColor=default;fillColor=none;align=left;verticalAlign=top;spacingLeft=4;spacingRight=4;overflow=hidden;rotatable=0;points=[[0,0.5],[1,0.5]];portConstraint=eastwest;whiteSpace=wrap;html=1;" vertex="1" parent="q396DMPLbD6kzOHKhpBb-5">
          <mxGeometry y="52" width="100" height="26" as="geometry" />
        </mxCell>
        <mxCell id="q396DMPLbD6kzOHKhpBb-8" value="- str()" style="text;strokeColor=default;fillColor=none;align=left;verticalAlign=top;spacingLeft=4;spacingRight=4;overflow=hidden;rotatable=0;points=[[0,0.5],[1,0.5]];portConstraint=eastwest;whiteSpace=wrap;html=1;" vertex="1" parent="q396DMPLbD6kzOHKhpBb-5">
          <mxGeometry y="78" width="100" height="26" as="geometry" />
        </mxCell>
        <mxCell id="q396DMPLbD6kzOHKhpBb-9" value="- getitem&lt;span style=&quot;background-color: initial;&quot;&gt;()&lt;/span&gt;" style="text;strokeColor=default;fillColor=none;align=left;verticalAlign=top;spacingLeft=4;spacingRight=4;overflow=hidden;rotatable=0;points=[[0,0.5],[1,0.5]];portConstraint=eastwest;whiteSpace=wrap;html=1;" vertex="1" parent="q396DMPLbD6kzOHKhpBb-5">
          <mxGeometry y="104" width="100" height="26" as="geometry" />
        </mxCell>
        <mxCell id="q396DMPLbD6kzOHKhpBb-10" value="&lt;div style=&quot;font-family: Consolas, &amp;quot;Courier New&amp;quot;, monospace; font-size: 14px; line-height: 19px;&quot;&gt;Email&lt;br&gt;&lt;/div&gt;" style="swimlane;fontStyle=0;childLayout=stackLayout;horizontal=1;startSize=26;fillColor=none;horizontalStack=0;resizeParent=1;resizeParentMax=0;resizeLast=0;collapsible=1;marginBottom=0;whiteSpace=wrap;html=1;" vertex="1" parent="1">
          <mxGeometry x="840" y="269" width="100" height="130" as="geometry">
            <mxRectangle x="710" y="190" width="100" height="30" as="alternateBounds" />
          </mxGeometry>
        </mxCell>
        <mxCell id="q396DMPLbD6kzOHKhpBb-11" value="+&amp;nbsp;value" style="text;strokeColor=default;fillColor=none;align=left;verticalAlign=top;spacingLeft=4;spacingRight=4;overflow=hidden;rotatable=0;points=[[0,0.5],[1,0.5]];portConstraint=eastwest;whiteSpace=wrap;html=1;" vertex="1" parent="q396DMPLbD6kzOHKhpBb-10">
          <mxGeometry y="26" width="100" height="26" as="geometry" />
        </mxCell>
        <mxCell id="q396DMPLbD6kzOHKhpBb-12" value="- init()" style="text;strokeColor=default;fillColor=none;align=left;verticalAlign=top;spacingLeft=4;spacingRight=4;overflow=hidden;rotatable=0;points=[[0,0.5],[1,0.5]];portConstraint=eastwest;whiteSpace=wrap;html=1;" vertex="1" parent="q396DMPLbD6kzOHKhpBb-10">
          <mxGeometry y="52" width="100" height="26" as="geometry" />
        </mxCell>
        <mxCell id="q396DMPLbD6kzOHKhpBb-13" value="- str()" style="text;strokeColor=default;fillColor=none;align=left;verticalAlign=top;spacingLeft=4;spacingRight=4;overflow=hidden;rotatable=0;points=[[0,0.5],[1,0.5]];portConstraint=eastwest;whiteSpace=wrap;html=1;" vertex="1" parent="q396DMPLbD6kzOHKhpBb-10">
          <mxGeometry y="78" width="100" height="26" as="geometry" />
        </mxCell>
        <mxCell id="q396DMPLbD6kzOHKhpBb-14" value="- getitem&lt;span style=&quot;background-color: initial;&quot;&gt;()&lt;/span&gt;" style="text;strokeColor=default;fillColor=none;align=left;verticalAlign=top;spacingLeft=4;spacingRight=4;overflow=hidden;rotatable=0;points=[[0,0.5],[1,0.5]];portConstraint=eastwest;whiteSpace=wrap;html=1;" vertex="1" parent="q396DMPLbD6kzOHKhpBb-10">
          <mxGeometry y="104" width="100" height="26" as="geometry" />
        </mxCell>
        <mxCell id="q396DMPLbD6kzOHKhpBb-15" value="&lt;div style=&quot;font-family: Consolas, &amp;quot;Courier New&amp;quot;, monospace; font-size: 14px; line-height: 19px;&quot;&gt;Status&lt;br&gt;&lt;/div&gt;" style="swimlane;fontStyle=0;childLayout=stackLayout;horizontal=1;startSize=26;fillColor=none;horizontalStack=0;resizeParent=1;resizeParentMax=0;resizeLast=0;collapsible=1;marginBottom=0;whiteSpace=wrap;html=1;" vertex="1" parent="1">
          <mxGeometry x="960" y="269" width="100" height="130" as="geometry">
            <mxRectangle x="710" y="190" width="100" height="30" as="alternateBounds" />
          </mxGeometry>
        </mxCell>
        <mxCell id="q396DMPLbD6kzOHKhpBb-16" value="+&amp;nbsp;value" style="text;strokeColor=default;fillColor=none;align=left;verticalAlign=top;spacingLeft=4;spacingRight=4;overflow=hidden;rotatable=0;points=[[0,0.5],[1,0.5]];portConstraint=eastwest;whiteSpace=wrap;html=1;" vertex="1" parent="q396DMPLbD6kzOHKhpBb-15">
          <mxGeometry y="26" width="100" height="26" as="geometry" />
        </mxCell>
        <mxCell id="q396DMPLbD6kzOHKhpBb-17" value="- init()" style="text;strokeColor=default;fillColor=none;align=left;verticalAlign=top;spacingLeft=4;spacingRight=4;overflow=hidden;rotatable=0;points=[[0,0.5],[1,0.5]];portConstraint=eastwest;whiteSpace=wrap;html=1;" vertex="1" parent="q396DMPLbD6kzOHKhpBb-15">
          <mxGeometry y="52" width="100" height="26" as="geometry" />
        </mxCell>
        <mxCell id="q396DMPLbD6kzOHKhpBb-18" value="- str()" style="text;strokeColor=default;fillColor=none;align=left;verticalAlign=top;spacingLeft=4;spacingRight=4;overflow=hidden;rotatable=0;points=[[0,0.5],[1,0.5]];portConstraint=eastwest;whiteSpace=wrap;html=1;" vertex="1" parent="q396DMPLbD6kzOHKhpBb-15">
          <mxGeometry y="78" width="100" height="26" as="geometry" />
        </mxCell>
        <mxCell id="q396DMPLbD6kzOHKhpBb-19" value="- getitem&lt;span style=&quot;background-color: initial;&quot;&gt;()&lt;/span&gt;" style="text;strokeColor=default;fillColor=none;align=left;verticalAlign=top;spacingLeft=4;spacingRight=4;overflow=hidden;rotatable=0;points=[[0,0.5],[1,0.5]];portConstraint=eastwest;whiteSpace=wrap;html=1;" vertex="1" parent="q396DMPLbD6kzOHKhpBb-15">
          <mxGeometry y="104" width="100" height="26" as="geometry" />
        </mxCell>
        <mxCell id="q396DMPLbD6kzOHKhpBb-20" value="&lt;div style=&quot;font-family: Consolas, &amp;quot;Courier New&amp;quot;, monospace; font-size: 14px; line-height: 19px;&quot;&gt;Note&lt;br&gt;&lt;/div&gt;" style="swimlane;fontStyle=0;childLayout=stackLayout;horizontal=1;startSize=26;fillColor=none;horizontalStack=0;resizeParent=1;resizeParentMax=0;resizeLast=0;collapsible=1;marginBottom=0;whiteSpace=wrap;html=1;" vertex="1" parent="1">
          <mxGeometry x="1080" y="269" width="100" height="130" as="geometry">
            <mxRectangle x="710" y="190" width="100" height="30" as="alternateBounds" />
          </mxGeometry>
        </mxCell>
        <mxCell id="q396DMPLbD6kzOHKhpBb-21" value="+&amp;nbsp;value" style="text;strokeColor=default;fillColor=none;align=left;verticalAlign=top;spacingLeft=4;spacingRight=4;overflow=hidden;rotatable=0;points=[[0,0.5],[1,0.5]];portConstraint=eastwest;whiteSpace=wrap;html=1;" vertex="1" parent="q396DMPLbD6kzOHKhpBb-20">
          <mxGeometry y="26" width="100" height="26" as="geometry" />
        </mxCell>
        <mxCell id="q396DMPLbD6kzOHKhpBb-22" value="- init()" style="text;strokeColor=default;fillColor=none;align=left;verticalAlign=top;spacingLeft=4;spacingRight=4;overflow=hidden;rotatable=0;points=[[0,0.5],[1,0.5]];portConstraint=eastwest;whiteSpace=wrap;html=1;" vertex="1" parent="q396DMPLbD6kzOHKhpBb-20">
          <mxGeometry y="52" width="100" height="26" as="geometry" />
        </mxCell>
        <mxCell id="q396DMPLbD6kzOHKhpBb-23" value="- str()" style="text;strokeColor=default;fillColor=none;align=left;verticalAlign=top;spacingLeft=4;spacingRight=4;overflow=hidden;rotatable=0;points=[[0,0.5],[1,0.5]];portConstraint=eastwest;whiteSpace=wrap;html=1;" vertex="1" parent="q396DMPLbD6kzOHKhpBb-20">
          <mxGeometry y="78" width="100" height="26" as="geometry" />
        </mxCell>
        <mxCell id="q396DMPLbD6kzOHKhpBb-24" value="- getitem&lt;span style=&quot;background-color: initial;&quot;&gt;()&lt;/span&gt;" style="text;strokeColor=default;fillColor=none;align=left;verticalAlign=top;spacingLeft=4;spacingRight=4;overflow=hidden;rotatable=0;points=[[0,0.5],[1,0.5]];portConstraint=eastwest;whiteSpace=wrap;html=1;" vertex="1" parent="q396DMPLbD6kzOHKhpBb-20">
          <mxGeometry y="104" width="100" height="26" as="geometry" />
        </mxCell>
        <mxCell id="q396DMPLbD6kzOHKhpBb-26" value="&lt;div style=&quot;font-family: Consolas, &amp;quot;Courier New&amp;quot;, monospace; font-size: 14px; line-height: 19px;&quot;&gt;AddressBook&lt;/div&gt;" style="swimlane;fontStyle=0;childLayout=stackLayout;horizontal=1;startSize=26;fillColor=none;horizontalStack=0;resizeParent=1;resizeParentMax=0;resizeLast=0;collapsible=1;marginBottom=0;whiteSpace=wrap;html=1;" vertex="1" parent="1">
          <mxGeometry x="120" y="389" width="140" height="208" as="geometry">
            <mxRectangle x="710" y="190" width="100" height="30" as="alternateBounds" />
          </mxGeometry>
        </mxCell>
        <mxCell id="q396DMPLbD6kzOHKhpBb-28" value="+ data" style="text;strokeColor=default;fillColor=none;align=left;verticalAlign=top;spacingLeft=4;spacingRight=4;overflow=hidden;rotatable=0;points=[[0,0.5],[1,0.5]];portConstraint=eastwest;whiteSpace=wrap;html=1;" vertex="1" parent="q396DMPLbD6kzOHKhpBb-26">
          <mxGeometry y="26" width="140" height="26" as="geometry" />
        </mxCell>
        <mxCell id="q396DMPLbD6kzOHKhpBb-68" value="- init()" style="text;strokeColor=default;fillColor=none;align=left;verticalAlign=top;spacingLeft=4;spacingRight=4;overflow=hidden;rotatable=0;points=[[0,0.5],[1,0.5]];portConstraint=eastwest;whiteSpace=wrap;html=1;" vertex="1" parent="q396DMPLbD6kzOHKhpBb-26">
          <mxGeometry y="52" width="140" height="26" as="geometry" />
        </mxCell>
        <mxCell id="q396DMPLbD6kzOHKhpBb-29" value="-&amp;nbsp;str()" style="text;strokeColor=default;fillColor=none;align=left;verticalAlign=top;spacingLeft=4;spacingRight=4;overflow=hidden;rotatable=0;points=[[0,0.5],[1,0.5]];portConstraint=eastwest;whiteSpace=wrap;html=1;" vertex="1" parent="q396DMPLbD6kzOHKhpBb-26">
          <mxGeometry y="78" width="140" height="26" as="geometry" />
        </mxCell>
        <mxCell id="q396DMPLbD6kzOHKhpBb-30" value="-&amp;nbsp;next()" style="text;strokeColor=default;fillColor=none;align=left;verticalAlign=top;spacingLeft=4;spacingRight=4;overflow=hidden;rotatable=0;points=[[0,0.5],[1,0.5]];portConstraint=eastwest;whiteSpace=wrap;html=1;" vertex="1" parent="q396DMPLbD6kzOHKhpBb-26">
          <mxGeometry y="104" width="140" height="26" as="geometry" />
        </mxCell>
        <mxCell id="q396DMPLbD6kzOHKhpBb-59" value="-&amp;nbsp;iter()" style="text;strokeColor=default;fillColor=none;align=left;verticalAlign=top;spacingLeft=4;spacingRight=4;overflow=hidden;rotatable=0;points=[[0,0.5],[1,0.5]];portConstraint=eastwest;whiteSpace=wrap;html=1;" vertex="1" parent="q396DMPLbD6kzOHKhpBb-26">
          <mxGeometry y="130" width="140" height="26" as="geometry" />
        </mxCell>
        <mxCell id="q396DMPLbD6kzOHKhpBb-31" value="-&amp;nbsp;setitem()" style="text;strokeColor=default;fillColor=none;align=left;verticalAlign=top;spacingLeft=4;spacingRight=4;overflow=hidden;rotatable=0;points=[[0,0.5],[1,0.5]];portConstraint=eastwest;whiteSpace=wrap;html=1;" vertex="1" parent="q396DMPLbD6kzOHKhpBb-26">
          <mxGeometry y="156" width="140" height="26" as="geometry" />
        </mxCell>
        <mxCell id="q396DMPLbD6kzOHKhpBb-32" value="- getitem()" style="text;strokeColor=default;fillColor=none;align=left;verticalAlign=top;spacingLeft=4;spacingRight=4;overflow=hidden;rotatable=0;points=[[0,0.5],[1,0.5]];portConstraint=eastwest;whiteSpace=wrap;html=1;" vertex="1" parent="q396DMPLbD6kzOHKhpBb-26">
          <mxGeometry y="182" width="140" height="26" as="geometry" />
        </mxCell>
        <mxCell id="q396DMPLbD6kzOHKhpBb-42" value="&lt;div style=&quot;font-family: Consolas, &amp;quot;Courier New&amp;quot;, monospace; font-size: 14px; line-height: 19px;&quot;&gt;Storage&lt;/div&gt;" style="swimlane;fontStyle=0;childLayout=stackLayout;horizontal=1;startSize=26;fillColor=none;horizontalStack=0;resizeParent=1;resizeParentMax=0;resizeLast=0;collapsible=1;marginBottom=0;whiteSpace=wrap;html=1;" vertex="1" parent="1">
          <mxGeometry x="320" y="659" width="140" height="156" as="geometry">
            <mxRectangle x="710" y="190" width="100" height="30" as="alternateBounds" />
          </mxGeometry>
        </mxCell>
        <mxCell id="q396DMPLbD6kzOHKhpBb-47" value="+ adrbook_to_listdicts&lt;span style=&quot;background-color: initial;&quot;&gt;()&lt;/span&gt;" style="text;strokeColor=default;fillColor=none;align=left;verticalAlign=top;spacingLeft=4;spacingRight=4;overflow=hidden;rotatable=0;points=[[0,0.5],[1,0.5]];portConstraint=eastwest;whiteSpace=wrap;html=1;" vertex="1" parent="q396DMPLbD6kzOHKhpBb-42">
          <mxGeometry y="26" width="140" height="26" as="geometry" />
        </mxCell>
        <mxCell id="q396DMPLbD6kzOHKhpBb-48" value="+ listdicts_to_adrbook&lt;span style=&quot;background-color: initial;&quot;&gt;()&lt;/span&gt;" style="text;strokeColor=default;fillColor=none;align=left;verticalAlign=top;spacingLeft=4;spacingRight=4;overflow=hidden;rotatable=0;points=[[0,0.5],[1,0.5]];portConstraint=eastwest;whiteSpace=wrap;html=1;" vertex="1" parent="q396DMPLbD6kzOHKhpBb-42">
          <mxGeometry y="52" width="140" height="26" as="geometry" />
        </mxCell>
        <mxCell id="q396DMPLbD6kzOHKhpBb-49" value="+ log()" style="text;strokeColor=default;fillColor=none;align=left;verticalAlign=top;spacingLeft=4;spacingRight=4;overflow=hidden;rotatable=0;points=[[0,0.5],[1,0.5]];portConstraint=eastwest;whiteSpace=wrap;html=1;" vertex="1" parent="q396DMPLbD6kzOHKhpBb-42">
          <mxGeometry y="78" width="140" height="26" as="geometry" />
        </mxCell>
        <mxCell id="q396DMPLbD6kzOHKhpBb-51" value="+&amp;nbsp;save()" style="text;strokeColor=default;fillColor=none;align=left;verticalAlign=top;spacingLeft=4;spacingRight=4;overflow=hidden;rotatable=0;points=[[0,0.5],[1,0.5]];portConstraint=eastwest;whiteSpace=wrap;html=1;" vertex="1" parent="q396DMPLbD6kzOHKhpBb-42">
          <mxGeometry y="104" width="140" height="26" as="geometry" />
        </mxCell>
        <mxCell id="q396DMPLbD6kzOHKhpBb-52" value="+&amp;nbsp;load()" style="text;strokeColor=default;fillColor=none;align=left;verticalAlign=top;spacingLeft=4;spacingRight=4;overflow=hidden;rotatable=0;points=[[0,0.5],[1,0.5]];portConstraint=eastwest;whiteSpace=wrap;html=1;" vertex="1" parent="q396DMPLbD6kzOHKhpBb-42">
          <mxGeometry y="130" width="140" height="26" as="geometry" />
        </mxCell>
        <mxCell id="q396DMPLbD6kzOHKhpBb-61" style="edgeStyle=orthogonalEdgeStyle;rounded=0;orthogonalLoop=1;jettySize=auto;html=1;exitX=0.5;exitY=0;exitDx=0;exitDy=0;" edge="1" parent="1" source="RFE8gkDULMLMgZSxzmBv-15">
          <mxGeometry relative="1" as="geometry">
            <mxPoint x="830" y="189" as="targetPoint" />
            <mxPoint x="529.5699999999999" y="266" as="sourcePoint" />
          </mxGeometry>
        </mxCell>
        <mxCell id="q396DMPLbD6kzOHKhpBb-62" style="edgeStyle=orthogonalEdgeStyle;rounded=0;orthogonalLoop=1;jettySize=auto;html=1;exitX=0.5;exitY=0;exitDx=0;exitDy=0;" edge="1" parent="1" source="RFE8gkDULMLMgZSxzmBv-19">
          <mxGeometry relative="1" as="geometry">
            <mxPoint x="830" y="189" as="targetPoint" />
            <mxPoint x="540" y="279" as="sourcePoint" />
          </mxGeometry>
        </mxCell>
        <mxCell id="q396DMPLbD6kzOHKhpBb-63" style="edgeStyle=orthogonalEdgeStyle;rounded=0;orthogonalLoop=1;jettySize=auto;html=1;exitX=0.5;exitY=0;exitDx=0;exitDy=0;" edge="1" parent="1" source="q396DMPLbD6kzOHKhpBb-5">
          <mxGeometry relative="1" as="geometry">
            <mxPoint x="830" y="189" as="targetPoint" />
            <mxPoint x="550" y="289" as="sourcePoint" />
          </mxGeometry>
        </mxCell>
        <mxCell id="q396DMPLbD6kzOHKhpBb-64" style="edgeStyle=orthogonalEdgeStyle;rounded=0;orthogonalLoop=1;jettySize=auto;html=1;exitX=0.5;exitY=0;exitDx=0;exitDy=0;" edge="1" parent="1" source="q396DMPLbD6kzOHKhpBb-10">
          <mxGeometry relative="1" as="geometry">
            <mxPoint x="830" y="189" as="targetPoint" />
            <mxPoint x="781" y="279" as="sourcePoint" />
          </mxGeometry>
        </mxCell>
        <mxCell id="q396DMPLbD6kzOHKhpBb-65" style="edgeStyle=orthogonalEdgeStyle;rounded=0;orthogonalLoop=1;jettySize=auto;html=1;exitX=0.5;exitY=0;exitDx=0;exitDy=0;" edge="1" parent="1" source="q396DMPLbD6kzOHKhpBb-15">
          <mxGeometry relative="1" as="geometry">
            <mxPoint x="830" y="189" as="targetPoint" />
            <mxPoint x="1091.5" y="236.01" as="sourcePoint" />
          </mxGeometry>
        </mxCell>
        <mxCell id="q396DMPLbD6kzOHKhpBb-66" style="edgeStyle=orthogonalEdgeStyle;rounded=0;orthogonalLoop=1;jettySize=auto;html=1;exitX=0.5;exitY=0;exitDx=0;exitDy=0;" edge="1" parent="1" source="q396DMPLbD6kzOHKhpBb-20">
          <mxGeometry relative="1" as="geometry">
            <mxPoint x="830" y="189" as="targetPoint" />
            <mxPoint x="1155" y="239" as="sourcePoint" />
          </mxGeometry>
        </mxCell>
        <mxCell id="q396DMPLbD6kzOHKhpBb-69" value="" style="endArrow=classic;html=1;rounded=0;exitX=0.5;exitY=0;exitDx=0;exitDy=0;entryX=0.5;entryY=1.014;entryDx=0;entryDy=0;entryPerimeter=0;" edge="1" parent="1" source="q396DMPLbD6kzOHKhpBb-26" target="MD10GDsTbNlNncCkdXS1-70">
          <mxGeometry width="50" height="50" relative="1" as="geometry">
            <mxPoint x="180" y="379" as="sourcePoint" />
            <mxPoint x="210" y="359" as="targetPoint" />
          </mxGeometry>
        </mxCell>
        <mxCell id="q396DMPLbD6kzOHKhpBb-70" value="1" style="endArrow=open;endSize=12;startArrow=diamondThin;startSize=14;startFill=1;edgeStyle=orthogonalEdgeStyle;align=left;verticalAlign=bottom;rounded=0;strokeColor=default;labelBorderColor=none;labelBackgroundColor=none;fontColor=none;noLabel=1;exitX=1;exitY=0.5;exitDx=0;exitDy=0;entryX=-0.001;entryY=0.071;entryDx=0;entryDy=0;entryPerimeter=0;" edge="1" parent="1" source="q396DMPLbD6kzOHKhpBb-28" target="MD10GDsTbNlNncCkdXS1-74">
          <mxGeometry x="-0.875" y="20" relative="1" as="geometry">
            <mxPoint x="140" y="429" as="sourcePoint" />
            <mxPoint x="300" y="429" as="targetPoint" />
            <mxPoint as="offset" />
          </mxGeometry>
        </mxCell>
        <mxCell id="q396DMPLbD6kzOHKhpBb-71" value="1" style="endArrow=open;endSize=12;startArrow=diamondThin;startSize=14;startFill=0;edgeStyle=orthogonalEdgeStyle;align=left;verticalAlign=bottom;rounded=0;strokeColor=default;labelBorderColor=none;labelBackgroundColor=none;fontColor=none;noLabel=1;exitX=1.001;exitY=0.447;exitDx=0;exitDy=0;exitPerimeter=0;entryX=0.502;entryY=1.031;entryDx=0;entryDy=0;entryPerimeter=0;" edge="1" parent="1" source="RFE8gkDULMLMgZSxzmBv-2" target="q396DMPLbD6kzOHKhpBb-9">
          <mxGeometry x="-0.875" y="20" relative="1" as="geometry">
            <mxPoint x="441" y="503.9999999999999" as="sourcePoint" />
            <mxPoint x="770" y="459" as="targetPoint" />
            <mxPoint as="offset" />
            <Array as="points">
              <mxPoint x="771" y="504" />
            </Array>
          </mxGeometry>
        </mxCell>
        <mxCell id="q396DMPLbD6kzOHKhpBb-72" value="1" style="endArrow=open;endSize=12;startArrow=diamondThin;startSize=14;startFill=0;edgeStyle=orthogonalEdgeStyle;align=left;verticalAlign=bottom;rounded=0;strokeColor=default;labelBorderColor=none;labelBackgroundColor=none;fontColor=none;noLabel=1;exitX=1;exitY=0.5;exitDx=0;exitDy=0;" edge="1" parent="1" source="RFE8gkDULMLMgZSxzmBv-3">
          <mxGeometry x="-0.875" y="20" relative="1" as="geometry">
            <mxPoint x="441" y="530.9999999999999" as="sourcePoint" />
            <mxPoint x="890" y="399" as="targetPoint" />
            <mxPoint as="offset" />
            <Array as="points">
              <mxPoint x="890" y="531" />
              <mxPoint x="890" y="403" />
            </Array>
          </mxGeometry>
        </mxCell>
        <mxCell id="q396DMPLbD6kzOHKhpBb-74" value="1" style="endArrow=open;endSize=12;startArrow=diamondThin;startSize=14;startFill=0;edgeStyle=orthogonalEdgeStyle;align=left;verticalAlign=bottom;rounded=0;strokeColor=default;labelBorderColor=none;labelBackgroundColor=none;fontColor=none;noLabel=1;exitX=1;exitY=0.5;exitDx=0;exitDy=0;entryX=0.473;entryY=1.022;entryDx=0;entryDy=0;entryPerimeter=0;" edge="1" parent="1" source="RFE8gkDULMLMgZSxzmBv-5" target="q396DMPLbD6kzOHKhpBb-24">
          <mxGeometry x="-0.875" y="20" relative="1" as="geometry">
            <mxPoint x="441" y="583" as="sourcePoint" />
            <mxPoint x="529" y="583" as="targetPoint" />
            <mxPoint as="offset" />
            <Array as="points">
              <mxPoint x="1127" y="583" />
            </Array>
          </mxGeometry>
        </mxCell>
        <mxCell id="q396DMPLbD6kzOHKhpBb-75" value="1" style="endArrow=open;endSize=12;startArrow=diamondThin;startSize=14;startFill=0;edgeStyle=orthogonalEdgeStyle;align=left;verticalAlign=bottom;rounded=0;strokeColor=default;labelBorderColor=none;labelBackgroundColor=none;fontColor=none;noLabel=1;exitX=1;exitY=0.5;exitDx=0;exitDy=0;entryX=0.506;entryY=1.03;entryDx=0;entryDy=0;entryPerimeter=0;" edge="1" parent="1" source="RFE8gkDULMLMgZSxzmBv-4" target="q396DMPLbD6kzOHKhpBb-19">
          <mxGeometry x="-0.875" y="20" relative="1" as="geometry">
            <mxPoint x="561.97" y="557" as="sourcePoint" />
            <mxPoint x="1011" y="409" as="targetPoint" />
            <mxPoint as="offset" />
            <Array as="points">
              <mxPoint x="1011" y="557" />
            </Array>
          </mxGeometry>
        </mxCell>
        <mxCell id="q396DMPLbD6kzOHKhpBb-76" value="&lt;div style=&quot;font-family: Consolas, &amp;quot;Courier New&amp;quot;, monospace; font-size: 14px; line-height: 19px;&quot;&gt;Bot&lt;/div&gt;" style="swimlane;fontStyle=0;childLayout=stackLayout;horizontal=1;startSize=26;fillColor=none;horizontalStack=0;resizeParent=1;resizeParentMax=0;resizeLast=0;collapsible=1;marginBottom=0;whiteSpace=wrap;html=1;" vertex="1" parent="1">
          <mxGeometry x="120" y="659" width="140" height="130" as="geometry">
            <mxRectangle x="710" y="190" width="100" height="30" as="alternateBounds" />
          </mxGeometry>
        </mxCell>
        <mxCell id="q396DMPLbD6kzOHKhpBb-77" value="+ book" style="text;strokeColor=default;fillColor=none;align=left;verticalAlign=top;spacingLeft=4;spacingRight=4;overflow=hidden;rotatable=0;points=[[0,0.5],[1,0.5]];portConstraint=eastwest;whiteSpace=wrap;html=1;" vertex="1" parent="q396DMPLbD6kzOHKhpBb-76">
          <mxGeometry y="26" width="140" height="26" as="geometry" />
        </mxCell>
        <mxCell id="q396DMPLbD6kzOHKhpBb-78" value="- init()" style="text;strokeColor=default;fillColor=none;align=left;verticalAlign=top;spacingLeft=4;spacingRight=4;overflow=hidden;rotatable=0;points=[[0,0.5],[1,0.5]];portConstraint=eastwest;whiteSpace=wrap;html=1;" vertex="1" parent="q396DMPLbD6kzOHKhpBb-76">
          <mxGeometry y="52" width="140" height="26" as="geometry" />
        </mxCell>
        <mxCell id="q396DMPLbD6kzOHKhpBb-79" value="-&amp;nbsp;str()" style="text;strokeColor=default;fillColor=none;align=left;verticalAlign=top;spacingLeft=4;spacingRight=4;overflow=hidden;rotatable=0;points=[[0,0.5],[1,0.5]];portConstraint=eastwest;whiteSpace=wrap;html=1;" vertex="1" parent="q396DMPLbD6kzOHKhpBb-76">
          <mxGeometry y="78" width="140" height="26" as="geometry" />
        </mxCell>
        <mxCell id="q396DMPLbD6kzOHKhpBb-80" value="+&amp;nbsp;handle()" style="text;strokeColor=default;fillColor=none;align=left;verticalAlign=top;spacingLeft=4;spacingRight=4;overflow=hidden;rotatable=0;points=[[0,0.5],[1,0.5]];portConstraint=eastwest;whiteSpace=wrap;html=1;" vertex="1" parent="q396DMPLbD6kzOHKhpBb-76">
          <mxGeometry y="104" width="140" height="26" as="geometry" />
        </mxCell>
        <mxCell id="q396DMPLbD6kzOHKhpBb-84" value="" style="endArrow=classic;html=1;rounded=0;exitX=0.5;exitY=0;exitDx=0;exitDy=0;entryX=0.5;entryY=1.014;entryDx=0;entryDy=0;entryPerimeter=0;" edge="1" parent="1" source="q396DMPLbD6kzOHKhpBb-76">
          <mxGeometry width="50" height="50" relative="1" as="geometry">
            <mxPoint x="189.57" y="655" as="sourcePoint" />
            <mxPoint x="189.57" y="597" as="targetPoint" />
          </mxGeometry>
        </mxCell>
      </root>
    </mxGraphModel>
  </diagram>
</mxfile>
